<?xml version="1.0" standalone="no"?>
<!DOCTYPE svg PUBLIC "-//W3C//DTD SVG 20010904//EN"
 "http://www.w3.org/TR/2001/REC-SVG-20010904/DTD/svg10.dtd">
<svg version="1.0" xmlns="http://www.w3.org/2000/svg"
 width="1236.000000pt" height="1236.000000pt" viewBox="0 0 1236.000000 1236.000000"
 preserveAspectRatio="xMidYMid meet">
<metadata>
Created by potrace 1.14, written by Peter Selinger 2001-2017
</metadata>
<g transform="translate(0.000000,1236.000000) scale(0.100000,-0.100000)"
fill="#000000" stroke="none">
<path d="M5898 12355 c-2 -2 -52 -6 -112 -9 -173 -11 -316 -26 -416 -42 -14
-2 -50 -6 -80 -10 -30 -3 -62 -7 -70 -9 -8 -3 -33 -7 -55 -10 -113 -17 -202
-35 -377 -75 -781 -182 -1486 -496 -2153 -962 -173 -121 -331 -242 -460 -353
-33 -29 -73 -63 -89 -76 -37 -31 -106 -96 -231 -219 -354 -347 -607 -660 -907
-1125 -127 -197 -319 -560 -431 -815 -111 -252 -230 -591 -303 -860 -36 -133
-39 -148 -50 -204 -2 -16 -6 -32 -8 -35 -2 -3 -7 -22 -10 -41 -3 -19 -12 -64
-20 -100 -8 -36 -17 -83 -20 -104 -4 -21 -8 -48 -11 -60 -11 -48 -35 -198 -40
-254 -3 -26 -7 -60 -10 -77 -9 -60 -17 -151 -32 -340 -9 -131 -9 -651 1 -785
15 -204 17 -226 31 -345 19 -150 34 -254 55 -365 6 -33 13 -72 16 -87 3 -16
17 -80 31 -143 14 -63 26 -119 28 -125 3 -16 15 -60 56 -210 63 -232 197 -611
281 -795 14 -30 38 -84 54 -120 29 -67 163 -334 204 -405 50 -89 135 -233 166
-282 19 -29 51 -79 71 -110 56 -89 220 -319 286 -403 107 -135 121 -152 231
-279 162 -187 393 -422 536 -546 19 -17 71 -62 115 -100 44 -39 109 -92 145
-120 36 -27 67 -52 70 -55 24 -27 332 -243 490 -342 312 -196 785 -439 1002
-513 24 -9 52 -19 63 -24 194 -90 839 -276 1090 -315 17 -2 50 -8 75 -11 25
-4 54 -9 65 -11 60 -12 60 -12 350 -48 316 -40 957 -40 1300 -1 78 9 278 35
300 39 11 2 45 7 75 12 30 4 57 8 60 9 3 1 28 5 55 10 28 5 52 9 55 10 3 1 21
4 40 8 171 36 250 56 420 102 142 39 488 152 505 165 6 4 35 15 65 25 241 79
764 341 1080 543 171 109 516 352 540 381 3 3 23 19 45 36 39 29 67 52 125
105 15 14 54 47 86 75 79 67 216 198 333 319 131 135 125 128 231 251 52 61
97 112 100 115 15 14 222 284 260 340 25 36 48 67 53 68 4 2 7 10 7 17 0 7 4
15 9 17 12 4 190 283 275 432 136 238 303 587 386 806 17 47 38 99 45 115 53
122 194 596 221 745 3 14 11 50 19 80 8 30 16 66 19 80 2 14 11 63 20 110 8
47 18 101 21 120 3 19 7 46 10 60 3 14 7 45 10 70 3 25 7 56 10 70 11 60 20
154 41 415 15 184 8 796 -11 940 -2 17 -6 57 -10 90 -3 33 -7 71 -9 85 -2 14
-7 52 -11 85 -4 33 -9 76 -11 95 -2 19 -8 55 -13 80 -6 25 -15 79 -22 120 -14
95 -72 356 -105 480 -93 343 -199 639 -350 980 -87 198 -292 572 -417 765
-102 156 -241 356 -272 391 -5 7 -19 24 -30 40 -40 55 -170 215 -226 279 -20
22 -47 53 -60 69 -137 165 -503 515 -715 686 -190 153 -474 354 -678 480 -159
98 -512 285 -666 354 -36 15 -87 39 -115 51 -116 55 -603 232 -685 250 -8 2
-76 20 -150 40 -74 21 -139 38 -145 39 -31 7 -89 20 -160 36 -44 11 -96 22
-115 25 -19 3 -57 10 -85 15 -27 5 -66 12 -85 14 -19 3 -45 8 -57 10 -12 3
-81 12 -155 21 -73 9 -144 18 -158 20 -14 2 -63 7 -110 10 -47 4 -105 9 -130
11 -48 5 -688 13 -692 9z"/>
</g>
</svg>
