<?xml version="1.0" standalone="no"?>
<!DOCTYPE svg PUBLIC "-//W3C//DTD SVG 20010904//EN"
 "http://www.w3.org/TR/2001/REC-SVG-20010904/DTD/svg10.dtd">
<svg version="1.0" xmlns="http://www.w3.org/2000/svg"
 width="2553.000000pt" height="2553.000000pt" viewBox="0 0 2553.000000 2553.000000"
 preserveAspectRatio="xMidYMid meet">
<metadata>
Created by potrace 1.14, written by Peter Selinger 2001-2017
</metadata>
<g transform="translate(0.000000,2553.000000) scale(0.100000,-0.100000)"
fill="#000000" stroke="none">
<path d="M11570 22740 c-82 -11 -268 -54 -340 -80 -30 -10 -113 -26 -185 -35
-1050 -128 -2274 -445 -3350 -870 -325 -128 -845 -357 -1055 -463 -311 -158
-704 -375 -905 -500 -674 -419 -1273 -961 -1720 -1557 -628 -837 -844 -1547
-822 -2700 7 -336 12 -431 57 -990 60 -735 62 -785 65 -1191 3 -385 4 -403 24
-443 12 -23 40 -53 63 -68 36 -24 52 -28 113 -28 83 0 126 22 168 88 36 55 40
111 36 532 l-4 366 56 -58 c45 -47 58 -67 64 -103 13 -81 75 -271 113 -348 44
-89 134 -191 215 -243 91 -59 175 -83 289 -84 92 0 98 -1 108 -24 6 -13 9 -25
7 -27 -1 -2 -156 6 -342 17 -368 22 -389 20 -453 -28 -90 -68 -98 -215 -16
-297 52 -52 77 -57 418 -76 606 -36 942 -50 1284 -57 l343 -6 -8 -151 c-4 -83
-8 -208 -8 -278 0 -141 4 -152 79 -212 71 -58 197 -45 263 26 44 47 52 86 68
349 8 140 15 257 15 260 0 15 132 20 855 29 882 11 1229 26 1510 69 45 6 703
-22 815 -35 l44 -6 -144 -58 c-80 -31 -242 -101 -360 -155 -435 -197 -501
-222 -905 -350 -986 -313 -1911 -805 -2690 -1430 -226 -181 -396 -335 -625
-564 -305 -305 -542 -583 -775 -910 -60 -83 -112 -148 -117 -143 -9 9 6 679
22 957 16 286 48 708 95 1285 70 841 92 1199 77 1248 -52 172 -290 192 -372
32 -11 -22 -20 -69 -24 -125 -36 -509 -50 -702 -72 -955 -13 -162 -31 -371
-39 -465 -98 -1163 -120 -2140 -60 -2632 97 -788 422 -1547 907 -2115 124
-145 345 -362 473 -464 116 -92 329 -237 465 -317 263 -154 664 -330 1045
-458 110 -37 193 -70 185 -73 -8 -2 -55 -17 -105 -31 -1040 -308 -2051 -1208
-2610 -2325 -267 -532 -612 -1538 -844 -2455 -85 -338 -221 -953 -221 -1001 0
-12 33 -14 203 -14 l202 0 44 213 c246 1185 695 2571 1037 3199 492 904 1280
1620 2130 1936 351 131 633 183 1009 186 119 1 218 7 228 12 13 8 68 0 205
-28 1232 -255 2697 -409 4877 -513 762 -36 1650 -46 2185 -25 1397 56 2450
229 3615 594 180 56 893 270 1046 313 13 4 18 -6 23 -44 9 -70 53 -135 110
-162 43 -21 64 -23 418 -32 865 -21 1084 -34 1353 -80 532 -90 885 -291 1165
-664 320 -425 510 -968 845 -2415 175 -754 219 -923 513 -1960 l149 -525 207
-3 c113 -1 206 0 206 3 0 8 -184 669 -315 1130 -142 503 -211 771 -325 1260
-314 1355 -459 1841 -685 2300 -132 268 -295 503 -470 679 -397 400 -881 584
-1695 646 -112 8 -698 26 -970 30 -27 0 -3 13 115 59 307 119 658 292 836 412
208 140 338 305 398 504 36 122 254 1348 330 1865 133 891 199 1664 188 2180
-10 431 -64 848 -170 1298 -18 78 -32 142 -29 142 16 0 167 -92 231 -140 92
-70 145 -137 173 -220 47 -140 173 -196 296 -133 50 26 93 89 99 147 14 117
-80 301 -224 440 -124 119 -246 196 -533 332 l-195 93 -19 58 c-45 138 -172
476 -256 678 -59 143 -86 221 -79 225 6 4 59 10 117 14 59 3 202 13 317 21
190 13 380 23 1020 55 423 22 822 62 1140 116 283 47 624 128 671 159 13 8 46
15 76 15 54 0 126 26 161 58 55 50 79 152 53 230 -40 119 -119 178 -224 170
-51 -5 -62 -1 -146 43 -62 32 -186 78 -391 144 -728 234 -979 320 -1268 434
-335 132 -689 253 -944 322 l-161 44 -11 55 c-6 30 -16 134 -21 230 -13 200
-21 264 -54 410 -24 104 -48 231 -48 260 0 8 12 49 27 90 68 187 27 390 -110
547 l-46 52 23 63 c19 53 23 83 23 193 0 151 -17 212 -91 331 -44 71 -157 188
-227 234 -33 21 -50 49 -117 187 -43 89 -108 216 -144 282 l-66 119 21 46 c70
160 62 326 -27 505 -39 79 -61 109 -138 185 -50 50 -143 127 -206 171 -103 71
-215 168 -514 443 -120 110 -144 141 -161 207 -38 145 -149 282 -280 345 -38
19 -72 35 -74 36 -2 2 6 15 17 31 202 287 72 690 -263 815 -52 19 -79 22 -205
22 -160 0 -288 -22 -530 -88 l-124 -34 -186 98 c-709 379 -1470 635 -2435 820
-226 43 -239 47 -330 81 -47 18 -91 24 -210 30 -82 3 -274 23 -425 42 -451 58
-832 88 -1360 108 -315 12 -935 7 -1225 -10 -101 -6 -161 -5 -215 5 -105 18
-253 24 -330 14z m315 -273 c183 7 224 6 280 -11 85 -25 164 -69 221 -124 71
-68 276 -305 324 -374 127 -185 114 -444 -31 -628 -111 -141 -318 -218 -511
-191 -121 17 -163 33 -368 138 -389 200 -521 322 -575 529 -29 114 -15 267 36
366 l21 41 -29 -7 -28 -7 25 21 c14 11 31 20 38 20 8 0 37 26 65 57 117 128
274 191 437 175 36 -3 79 -6 95 -5z m-3292 -826 c-228 -87 -502 -234 -847
-454 -165 -105 -190 -118 -198 -103 -5 10 -30 42 -55 73 -25 30 -41 59 -36 63
27 25 624 257 983 381 238 82 324 105 153 40z m8764 -82 c186 -79 354 -162
346 -170 -5 -3 -42 -16 -83 -28 l-75 -22 -160 75 -160 74 -3 61 c-2 34 1 61 7
61 5 0 63 -23 128 -51z m-7632 -1338 c-6 -4 -65 -37 -133 -72 -119 -62 -123
-63 -137 -45 -8 11 -15 23 -15 28 0 6 261 96 285 97 6 1 6 -2 0 -8z m-4826
-628 c-244 -324 -661 -1000 -864 -1398 -151 -298 -194 -465 -161 -630 9 -48
24 -101 32 -117 15 -28 14 -32 -22 -96 -60 -110 -168 -349 -229 -508 -32 -82
-59 -151 -62 -154 -8 -8 7 333 23 505 35 388 121 733 258 1035 130 288 380
676 626 970 141 170 456 500 476 500 2 0 -33 -48 -77 -107z m14281 -164 c0 -5
-7 -9 -15 -9 -15 0 -20 12 -9 23 8 8 24 -1 24 -14z m-1740 -1574 c40 -21 38
-25 -10 -25 -33 0 -40 3 -40 20 0 24 11 25 50 5z m-504 -1227 c46 -153 190
-295 352 -349 l57 -19 -265 3 c-526 8 -1274 -12 -1799 -49 -123 -8 -230 -13
-238 -10 -10 4 -13 20 -11 57 l3 52 65 18 c372 104 1146 261 1715 347 106 17
100 19 121 -50z m2022 -253 c109 -72 212 -105 353 -112 l106 -6 11 -46 c6 -25
9 -48 7 -49 -2 -2 -104 3 -227 12 -298 22 -665 43 -988 56 -416 18 -551 27
-454 29 219 3 580 55 924 130 96 22 178 39 181 40 3 1 43 -24 87 -54z m-4328
-205 c0 -5 -8 -10 -17 -10 -15 0 -16 2 -3 10 19 12 20 12 20 0z m6572 -167 c2
-43 2 -80 1 -82 -1 -2 -79 11 -173 29 -94 18 -169 34 -168 35 2 2 50 14 108
28 58 14 128 35 155 46 28 11 55 20 62 20 7 1 13 -26 15 -76z m-8780 -107 c2
-5 -15 -14 -37 -21 -22 -7 -222 -72 -445 -143 -223 -72 -452 -145 -510 -162
-373 -113 -834 -342 -1344 -667 -98 -62 -176 -108 -173 -101 3 7 17 39 30 71
23 54 31 62 113 116 92 60 144 106 204 178 32 39 54 50 270 139 384 157 1007
406 1439 574 l405 158 23 -67 c12 -36 24 -70 25 -75z m5178 -46 c1309 -40
2347 -123 3075 -245 174 -30 512 -97 524 -105 10 -6 10 -12 2 -28 -18 -33 -13
-119 9 -161 56 -110 209 -153 328 -92 47 24 107 91 122 136 l11 33 148 -44
c228 -67 480 -156 766 -269 293 -115 494 -187 865 -305 140 -45 300 -96 355
-114 l100 -33 -95 -17 c-334 -61 -807 -108 -1335 -131 -265 -12 -850 -45
-1045 -60 -107 -8 -238 -17 -291 -21 l-96 -7 -57 109 c-82 154 -140 238 -221
319 -81 82 -158 125 -222 125 -114 0 -203 -87 -203 -197 0 -70 33 -128 104
-183 36 -28 78 -75 112 -125 l53 -80 -37 -7 c-20 -4 -158 -19 -307 -33 -395
-38 -838 -88 -1371 -155 -469 -59 -751 -98 -1789 -249 -621 -90 -1008 -140
-1365 -175 -963 -97 -1400 -99 -2750 -11 -212 14 -1109 65 -1994 115 -885 49
-1612 93 -1615 96 -8 8 -26 -5 354 251 941 636 1313 839 1835 1003 91 28 287
92 435 140 527 173 761 238 976 270 72 11 134 22 138 24 26 17 428 58 786 81
523 33 701 46 720 50 14 2 28 -7 46 -34 84 -120 272 -102 340 31 17 33 23 37
71 43 144 16 746 49 1083 58 258 8 1151 6 1435 -3z m-8105 -1339 c-6 -5 -112
-76 -236 -159 -241 -160 -297 -211 -326 -293 l-17 -48 -56 -6 c-30 -3 -102
-12 -160 -20 -58 -8 -121 -12 -141 -9 -24 4 -61 -1 -105 -14 -43 -13 -126 -25
-219 -32 -82 -6 -168 -13 -190 -15 -22 -2 -380 -8 -795 -14 -415 -5 -814 -13
-886 -17 l-130 -7 3 64 c7 125 13 151 31 144 110 -46 129 -50 242 -50 132 0
173 11 292 79 42 24 98 49 125 56 26 6 163 16 303 20 392 14 694 49 1290 151
273 46 298 49 345 37 27 -7 91 -12 140 -12 109 0 189 23 354 100 107 50 159
67 136 45z m-3655 -466 c-5 -66 -10 -132 -10 -147 l0 -28 -125 0 c-69 0 -125
4 -125 8 0 4 27 34 61 67 33 33 92 97 131 142 39 46 73 82 74 80 2 -1 -1 -57
-6 -122z m15007 -262 c39 -98 103 -256 142 -352 39 -96 70 -176 68 -177 -2 -2
-41 3 -88 11 -302 54 -997 29 -2199 -80 -146 -13 -301 -26 -345 -30 -857 -67
-1648 -336 -2203 -749 -219 -163 -344 -319 -419 -518 -73 -193 -98 -361 -108
-733 -6 -232 -43 -976 -51 -1041 l-5 -41 -87 -7 c-48 -3 -154 -15 -237 -27
-128 -17 -162 -25 -235 -59 -47 -21 -113 -46 -147 -54 -88 -23 -255 -38 -343
-30 l-75 6 -18 -31 -18 -31 -37 29 c-52 42 -117 58 -178 44 l-47 -11 -147 96
c-80 54 -188 120 -239 147 -197 107 -265 193 -491 626 -67 129 -166 301 -219
384 -118 181 -202 323 -351 595 -280 507 -424 706 -749 1031 -102 102 -238
226 -301 277 l-115 92 -95 0 c-116 0 -160 11 -207 53 -44 39 -63 82 -63 142 0
40 -4 47 -32 65 l-32 19 34 -4 c32 -5 38 -1 65 37 17 23 48 51 70 62 39 20 53
21 425 20 497 -2 767 -29 1455 -144 460 -77 487 -79 1187 -88 675 -8 1054 -8
1188 2 311 23 972 108 1878 241 1246 182 2126 292 2962 370 261 24 318 30 330
34 3 0 38 -79 77 -176z m-10437 -503 c235 -29 489 -138 785 -335 206 -137 339
-247 541 -449 274 -275 402 -446 620 -831 267 -471 308 -542 403 -688 56 -86
151 -252 212 -369 276 -529 385 -661 684 -823 39 -21 157 -97 263 -168 l192
-129 0 -62 c0 -33 7 -119 15 -189 51 -435 182 -725 388 -855 216 -136 627
-243 937 -243 244 0 408 57 504 175 74 90 320 585 429 862 115 291 151 440
145 598 -3 86 -8 110 -31 158 -58 119 -163 174 -349 185 l-98 6 0 29 c0 16 9
187 19 381 11 193 22 449 26 567 10 370 35 535 98 674 52 111 89 159 190 243
267 223 679 430 1117 562 316 96 546 136 1075 185 1506 143 2222 161 2508 65
71 -24 145 -67 152 -89 29 -96 103 -378 134 -518 143 -631 178 -1147 126
-1847 -59 -799 -175 -1612 -415 -2904 -68 -367 -84 -414 -172 -507 -88 -93
-309 -226 -590 -355 -343 -157 -625 -255 -1384 -478 -188 -55 -422 -126 -520
-157 -406 -128 -634 -191 -964 -268 -810 -187 -1649 -291 -2665 -327 -357 -13
-1370 -7 -1755 11 -2762 124 -4353 307 -5780 665 -1360 340 -2106 736 -2642
1403 -431 536 -703 1220 -774 1944 l-6 67 54 -6 c61 -6 112 7 153 38 14 12 67
82 118 157 686 1017 1651 1853 2806 2431 411 206 831 374 1317 525 249 77 426
147 814 321 457 204 672 282 896 324 170 32 286 38 424 21z m5720 -3574 c0
-37 -55 -219 -104 -343 -92 -234 -85 -229 -79 -56 4 99 2 173 -6 213 l-12 60
29 25 c15 13 37 42 46 64 19 41 31 47 94 50 21 1 32 -4 32 -13z m-575 -67
c-35 -42 -60 -93 -105 -214 -38 -100 -38 -100 -45 -62 -10 53 -56 111 -107
136 -35 17 -63 21 -139 21 l-94 1 -16 33 -15 34 195 32 c108 17 228 35 266 39
39 5 74 9 78 10 5 0 -3 -13 -18 -30z m-861 -98 c-29 -69 -28 -297 2 -516 14
-100 57 -295 70 -316 13 -21 -19 -6 -54 26 -90 81 -156 267 -186 529 l-13 110
31 31 c32 31 56 91 56 136 0 23 3 24 51 20 42 -2 49 -6 43 -20z m647 -418
c-15 -38 -49 -131 -75 -209 -26 -78 -53 -149 -60 -160 -13 -17 -15 -15 -35 24
-26 50 -67 204 -76 283 l-7 57 89 3 c80 4 95 7 139 36 27 17 50 32 51 32 1 1
-11 -29 -26 -66z m429 -322 c0 -2 -27 -55 -61 -118 -61 -114 -69 -123 -134
-139 l-24 -6 33 79 c19 44 42 105 52 136 l17 56 59 -2 c32 -1 58 -4 58 -6z"/>
<path d="M19322 11835 c-130 -45 -227 -98 -502 -275 -91 -59 -214 -135 -275
-170 -60 -34 -216 -130 -345 -213 -581 -373 -834 -497 -1072 -527 -103 -12
-113 -15 -156 -47 -72 -54 -97 -166 -54 -250 20 -37 57 -76 83 -85 6 -2 -7
-22 -29 -45 -66 -69 -75 -153 -26 -240 30 -52 75 -80 150 -94 60 -11 120 -32
411 -143 432 -164 688 -197 883 -114 114 49 211 159 251 287 25 80 58 462 62
711 2 184 -6 217 -72 292 l-31 36 117 68 c65 37 201 122 303 188 198 128 354
215 443 245 30 11 67 27 81 37 32 20 71 86 80 132 20 113 -85 233 -204 232
-14 0 -58 -12 -98 -25z m-1555 -1442 c-79 -114 -126 -197 -133 -232 -4 -17 -8
-31 -9 -31 -2 0 -54 20 -117 44 -62 24 -138 51 -168 61 -30 10 -59 20 -64 23
-5 3 31 16 80 29 100 27 286 99 384 149 36 18 68 33 73 34 4 0 -17 -35 -46
-77z m513 -165 c-14 -182 -25 -224 -65 -234 -36 -9 -194 1 -206 13 -6 6 21 55
70 129 77 116 199 269 208 260 2 -2 -1 -78 -7 -168z"/>
<path d="M10735 11814 c-200 -50 -341 -104 -675 -261 -285 -134 -290 -136
-747 -302 -424 -153 -637 -223 -852 -277 -161 -41 -179 -44 -240 -36 -86 12
-173 0 -267 -38 -67 -26 -87 -30 -178 -30 -90 0 -108 -3 -154 -26 -125 -62
-145 -228 -40 -326 l30 -28 -21 -62 c-56 -169 -89 -413 -72 -544 17 -134 57
-220 134 -291 94 -87 175 -110 432 -123 208 -11 448 -1 601 25 372 65 607 222
745 500 87 176 115 346 122 739 l3 179 169 62 c232 85 237 87 525 223 277 130
404 181 541 216 105 27 153 60 181 124 41 93 2 210 -86 255 -38 20 -113 30
-151 21z m-1585 -1161 c-1 -124 -14 -285 -31 -358 -25 -110 -102 -232 -182
-286 l-32 -22 32 34 c89 96 107 216 47 305 -24 35 -25 41 -14 80 25 88 -23
189 -108 229 l-43 20 153 52 c84 28 159 52 166 52 9 1 12 -27 12 -106z m-893
-149 c-2 -2 -44 -15 -93 -28 -49 -13 -100 -27 -113 -31 -24 -8 -24 -8 -8 16
14 20 33 27 110 40 82 14 116 15 104 3z m118 -413 c-13 -42 -35 -158 -35 -188
l0 -33 -177 1 c-207 2 -237 6 -241 35 -2 17 9 25 67 48 39 15 108 50 153 78
51 30 106 55 143 63 86 19 98 19 90 -4z"/>
<path d="M14685 6551 c-81 -37 -134 -129 -120 -211 10 -61 56 -124 108 -148
42 -20 88 -24 544 -49 433 -24 503 -25 532 -13 113 47 162 169 110 277 -26 53
-70 88 -129 103 -35 8 -899 61 -985 60 -11 0 -38 -9 -60 -19z"/>
</g>
</svg>
